<svg width="21" height="20" viewBox="0 0 21 20" fill="none" xmlns="http://www.w3.org/2000/svg">
    <mask id="mask0_3251_2181" style="mask-type:alpha" maskUnits="userSpaceOnUse" x="0" y="0" width="20" height="20">
        <path d="M10.1251 0.833374C15.1872 0.833374 19.2906 4.93679 19.2906 9.99892C19.2906 15.0611 15.1872 19.1645 10.1251 19.1645C8.64232 19.1664 7.18139 18.8072 5.86862 18.1178L1.9366 19.1416C1.80522 19.1758 1.66717 19.1751 1.53615 19.1395C1.40513 19.1039 1.28567 19.0347 1.18962 18.9388C1.09358 18.8428 1.02427 18.7234 0.988578 18.5925C0.952885 18.4615 0.952042 18.3234 0.986134 18.192L2.00901 14.2609C1.31774 12.9467 0.957511 11.4838 0.959554 9.99892C0.959554 4.93679 5.06297 0.833374 10.1251 0.833374Z" fill="#7390FF"/>
    </mask>
    <g mask="url(#mask0_3251_2181)">
        <rect x="0.125" width="20" height="20" fill="#D4D6DD"/>
    </g>
</svg>
