<svg width="21" height="21" viewBox="0 0 21 21" fill="none" xmlns="http://www.w3.org/2000/svg">
    <g clip-path="url(#clip0_3251_1779)">
        <mask id="mask0_3251_1779" style="mask-type:alpha" maskUnits="userSpaceOnUse" x="0" y="0" width="21" height="21">
            <path d="M11.625 10.115C11.625 10.8064 11.0664 11.365 10.375 11.365C9.68359 11.365 9.125 10.8064 9.125 10.115C9.125 9.42358 9.68359 8.86499 10.375 8.86499C11.0664 8.86499 11.625 9.42358 11.625 10.115ZM0.375 10.115C0.375 4.59155 4.85156 0.11499 10.375 0.11499C15.8984 0.11499 20.375 4.59155 20.375 10.115C20.375 15.6384 15.8984 20.115 10.375 20.115C4.85156 20.115 0.375 15.6384 0.375 10.115ZM13.0742 12.0955L15.2422 6.45874C15.5352 5.66577 14.7891 4.95483 14.0313 5.2478L8.39453 7.41577C8.0625 7.54077 7.80078 7.80249 7.67578 8.13452L5.50781 13.7712C5.21484 14.5291 5.92578 15.2751 6.71875 14.9822L12.3555 12.8142C12.6875 12.6892 12.9492 12.4275 13.0742 12.0955V12.0955Z" fill="black"/>
        </mask>
        <g mask="url(#mask0_3251_1779)">
            <rect x="0.375" y="0.11377" width="20" height="20" fill="#C5C6CC"/>
        </g>
    </g>
    <defs>
        <clipPath id="clip0_3251_1779">
            <rect width="20" height="20" fill="white" transform="translate(0.375 0.11499)"/>
        </clipPath>
    </defs>
</svg>
