<svg width="21" height="21" viewBox="0 0 21 21" fill="none" xmlns="http://www.w3.org/2000/svg">
    <g clip-path="url(#clip0_3251_1789)">
        <mask id="mask0_3251_1789" style="mask-type:alpha" maskUnits="userSpaceOnUse" x="0" y="0" width="21" height="20">
            <path d="M20.2286 6.84032L14.2329 5.96896L11.5527 0.535332C11.4795 0.386562 11.3591 0.26613 11.2103 0.192926C10.8372 0.0087351 10.3838 0.162227 10.1973 0.535332L7.51704 5.96896L1.5214 6.84032C1.3561 6.86394 1.20497 6.94186 1.08926 7.05993C0.949371 7.20371 0.872288 7.39715 0.874944 7.59773C0.877601 7.79831 0.959781 7.98963 1.10343 8.12966L5.44135 12.359L4.4165 18.331C4.39246 18.4699 4.40784 18.6128 4.46087 18.7434C4.51391 18.874 4.60249 18.9872 4.71656 19.0701C4.83063 19.1529 4.96564 19.2021 5.10627 19.2122C5.2469 19.2222 5.38752 19.1926 5.5122 19.1268L10.875 16.3073L16.2378 19.1268C16.3842 19.2047 16.5542 19.2307 16.7171 19.2024C17.128 19.1315 17.4043 18.7419 17.3335 18.331L16.3086 12.359L20.6465 8.12966C20.7646 8.01395 20.8425 7.86282 20.8661 7.69752C20.9299 7.28427 20.6418 6.90172 20.2286 6.84032V6.84032Z" fill="#7390FF"/>
        </mask>
        <g mask="url(#mask0_3251_1789)">
            <rect x="0.875" y="0.11499" width="20" height="20" fill="#D4D6DD"/>
        </g>
    </g>
    <defs>
        <clipPath id="clip0_3251_1789">
            <rect width="20" height="20" fill="white" transform="translate(0.875 0.11499)"/>
        </clipPath>
    </defs>
</svg>
