<svg width="21" height="21" viewBox="0 0 21 21" fill="none" xmlns="http://www.w3.org/2000/svg">
    <mask id="mask0_3251_1794" style="mask-type:alpha" maskUnits="userSpaceOnUse" x="2" y="0" width="17" height="21">
        <path d="M15.6248 5.11487C15.6248 7.87623 13.3864 10.1148 10.625 10.1148C7.86373 10.1148 5.62524 7.87623 5.62524 5.11487C5.62524 2.35351 7.86373 0.11499 10.625 0.11499C13.3864 0.11499 15.6248 2.35351 15.6248 5.11487Z" fill="#7390FF"/>
        <path d="M2.29199 16.7817C2.29199 14.0204 4.53048 11.7818 7.2918 11.7818H13.9582C16.7195 11.7818 18.958 14.0204 18.958 16.7817V17.615C18.958 18.9957 17.8388 20.115 16.4581 20.115H4.79189C3.41124 20.115 2.29199 18.9957 2.29199 17.615V16.7817Z" fill="#7390FF"/>
    </mask>
    <g mask="url(#mask0_3251_1794)">
        <rect x="0.625488" y="0.11377" width="19.9992" height="19.9995" fill="#D4D6DD"/>
    </g>
</svg>
